{
    "asset": {
        "generator": "FBX2glTF v0.9.7",
        "version": "2.0"
    },
    "scene": 0,
    "buffers": [
        {
            "byteLength": 318228,
            "uri": "buffer.bin"
        }
    ],
    "bufferViews": [
        {
            "buffer": 0,
            "byteLength": 3966,
            "byteOffset": 0,
            "target": 34963
        },
        {
            "buffer": 0,
            "byteLength": 4872,
            "byteOffset": 3968,
            "target": 34962
        },
        {
            "buffer": 0,
            "byteLength": 4872,
            "byteOffset": 8840,
            "target": 34962
        },
        {
            "buffer": 0,
            "byteLength": 3248,
            "byteOffset": 13712,
            "target": 34962
        },
        {
            "buffer": 0,
            "byteLength": 3248,
            "byteOffset": 16960,
            "target": 34962
        },
        {
            "buffer": 0,
            "byteLength": 3248,
            "byteOffset": 20208,
            "target": 34962
        },
        {
            "buffer": 0,
            "byteLength": 6496,
            "byteOffset": 23456,
            "target": 34962
        },
        {
            "buffer": 0,
            "byteLength": 41556,
            "byteOffset": 29952,
            "target": 34963
        },
        {
            "buffer": 0,
            "byteLength": 45996,
            "byteOffset": 71508,
            "target": 34962
        },
        {
            "buffer": 0,
            "byteLength": 45996,
            "byteOffset": 117504,
            "target": 34962
        },
        {
            "buffer": 0,
            "byteLength": 30664,
            "byteOffset": 163500,
            "target": 34962
        },
        {
            "buffer": 0,
            "byteLength": 30664,
            "byteOffset": 194164,
            "target": 34962
        },
        {
            "buffer": 0,
            "byteLength": 30664,
            "byteOffset": 224828,
            "target": 34962
        },
        {
            "buffer": 0,
            "byteLength": 61328,
            "byteOffset": 255492,
            "target": 34962
        },
        {
            "buffer": 0,
            "byteLength": 1408,
            "byteOffset": 316820
        }
    ],
    "scenes": [
        {
            "name": "Root Scene",
            "nodes": [
                0
            ]
        }
    ],
    "accessors": [
        {
            "componentType": 5123,
            "type": "SCALAR",
            "count": 1983,
            "bufferView": 0,
            "byteOffset": 0
        },
        {
            "componentType": 5126,
            "type": "VEC3",
            "count": 406,
            "bufferView": 1,
            "byteOffset": 0,
            "min": [
                -0.164205849170685,
                0.11317178606987,
                0.000455640401924029
            ],
            "max": [
                -0.0409786254167557,
                0.212439328432083,
                0.0546199604868889
            ]
        },
        {
            "componentType": 5126,
            "type": "VEC3",
            "count": 406,
            "bufferView": 2,
            "byteOffset": 0
        },
        {
            "componentType": 5126,
            "type": "VEC2",
            "count": 406,
            "bufferView": 3,
            "byteOffset": 0
        },
        {
            "componentType": 5126,
            "type": "VEC2",
            "count": 406,
            "bufferView": 4,
            "byteOffset": 0
        },
        {
            "componentType": 5123,
            "type": "VEC4",
            "count": 406,
            "bufferView": 5,
            "byteOffset": 0
        },
        {
            "componentType": 5126,
            "type": "VEC4",
            "count": 406,
            "bufferView": 6,
            "byteOffset": 0
        },
        {
            "componentType": 5123,
            "type": "SCALAR",
            "count": 20778,
            "bufferView": 7,
            "byteOffset": 0
        },
        {
            "componentType": 5126,
            "type": "VEC3",
            "count": 3833,
            "bufferView": 8,
            "byteOffset": 0,
            "min": [
                -0.172796338796616,
                -0.00876675359904766,
                -0.0190265774726868
            ],
            "max": [
                -0.0413729213178158,
                0.21171098947525,
                0.0558832101523876
            ]
        },
        {
            "componentType": 5126,
            "type": "VEC3",
            "count": 3833,
            "bufferView": 9,
            "byteOffset": 0
        },
        {
            "componentType": 5126,
            "type": "VEC2",
            "count": 3833,
            "bufferView": 10,
            "byteOffset": 0
        },
        {
            "componentType": 5126,
            "type": "VEC2",
            "count": 3833,
            "bufferView": 11,
            "byteOffset": 0
        },
        {
            "componentType": 5123,
            "type": "VEC4",
            "count": 3833,
            "bufferView": 12,
            "byteOffset": 0
        },
        {
            "componentType": 5126,
            "type": "VEC4",
            "count": 3833,
            "bufferView": 13,
            "byteOffset": 0
        },
        {
            "componentType": 5126,
            "type": "MAT4",
            "count": 22,
            "bufferView": 14,
            "byteOffset": 0
        }
    ],
    "samplers": [
        {}
    ],
    "materials": [
        {
            "name": "pasted__ZJ1",
            "alphaMode": "OPAQUE",
            "extras": {
                "fromFBX": {
                    "shadingModel": "Metallic/Roughness",
                    "isTruePBR": true
                }
            },
            "pbrMetallicRoughness": {
                "baseColorFactor": [
                    1.0,
                    1.0,
                    1.0,
                    1.0
                ],
                "metallicFactor": 0.0,
                "roughnessFactor": 0.0
            }
        },
        {
            "name": "pasted__Hand1",
            "alphaMode": "OPAQUE",
            "extras": {
                "fromFBX": {
                    "shadingModel": "Metallic/Roughness",
                    "isTruePBR": true
                }
            },
            "pbrMetallicRoughness": {
                "baseColorFactor": [
                    1.0,
                    1.0,
                    1.0,
                    1.0
                ],
                "metallicFactor": 0.0,
                "roughnessFactor": 0.0
            }
        }
    ],
    "meshes": [
        {
            "name": "R_Hand",
            "primitives": [
                {
                    "material": 0,
                    "mode": 4,
                    "attributes": {
                        "JOINTS_0": 5,
                        "NORMAL": 2,
                        "POSITION": 1,
                        "TEXCOORD_0": 3,
                        "TEXCOORD_1": 4,
                        "WEIGHTS_0": 6
                    },
                    "indices": 0
                },
                {
                    "material": 1,
                    "mode": 4,
                    "attributes": {
                        "JOINTS_0": 12,
                        "NORMAL": 9,
                        "POSITION": 8,
                        "TEXCOORD_0": 10,
                        "TEXCOORD_1": 11,
                        "WEIGHTS_0": 13
                    },
                    "indices": 7
                }
            ]
        }
    ],
    "skins": [
        {
            "joints": [
                1,
                2,
                3,
                4,
                5,
                6,
                7,
                8,
                9,
                10,
                11,
                12,
                13,
                14,
                15,
                16,
                17,
                18,
                19,
                20,
                21,
                22
            ],
            "inverseBindMatrices": 14,
            "skeleton": 1
        }
    ],
    "nodes": [
        {
            "name": "RootNode",
            "translation": [
                0.0,
                0.0,
                0.0
            ],
            "rotation": [
                0.0,
                0.0,
                0.0,
                1.0
            ],
            "scale": [
                1.0,
                1.0,
                1.0
            ],
            "children": [
                1,
                23
            ]
        },
        {
            "name": "R_Hand_Rig",
            "translation": [
                -0.124662138521671,
                -0.0322099886834621,
                0.0
            ],
            "rotation": [
                0.0,
                0.0,
                0.0,
                1.0
            ],
            "scale": [
                1.0,
                1.0,
                1.0
            ],
            "children": [
                2
            ]
        },
        {
            "name": "R_Hand",
            "translation": [
                4.00695062126033e-05,
                0.0229098480194807,
                0.00275348825380206
            ],
            "rotation": [
                0.0,
                0.0,
                0.0,
                1.0
            ],
            "scale": [
                1.0,
                1.0,
                1.0
            ],
            "children": [
                3,
                7,
                11,
                15,
                19
            ]
        },
        {
            "name": "R_MiddleFinger_01",
            "translation": [
                -0.000496622349601239,
                0.119180552661419,
                0.00564754335209727
            ],
            "rotation": [
                0.0,
                0.0,
                0.0,
                1.0
            ],
            "scale": [
                1.0,
                1.0,
                1.0
            ],
            "children": [
                4
            ]
        },
        {
            "name": "R_MiddleFinger_02",
            "translation": [
                -0.00358863384462893,
                0.0473482646048069,
                -0.0018172498093918
            ],
            "rotation": [
                0.0,
                0.0,
                0.0,
                1.0
            ],
            "scale": [
                1.0,
                1.0,
                1.0
            ],
            "children": [
                5
            ]
        },
        {
            "name": "R_MiddleFinger_03",
            "translation": [
                -0.00209451979026198,
                0.0268783066421747,
                0.0011376217007637
            ],
            "rotation": [
                0.0,
                0.0,
                0.0,
                1.0
            ],
            "scale": [
                1.0,
                1.0,
                1.0
            ],
            "children": [
                6
            ]
        },
        {
            "name": "R_MiddleFinger_04",
            "translation": [
                -0.00132913223933429,
                0.0278505031019449,
                -0.000169788414495997
            ],
            "rotation": [
                0.0,
                0.0,
                0.0,
                1.0
            ],
            "scale": [
                1.0,
                1.0,
                1.0
            ]
        },
        {
            "name": "R_RingFinger_01",
            "translation": [
                -0.0207987539470196,
                0.114630192518234,
                0.008105443790555
            ],
            "rotation": [
                0.0,
                0.0,
                0.0,
                1.0
            ],
            "scale": [
                1.0,
                1.0,
                1.0
            ],
            "children": [
                8
            ]
        },
        {
            "name": "R_RingFinger_02",
            "translation": [
                -0.000313279801048338,
                0.039457269012928,
                -0.0033720126375556
            ],
            "rotation": [
                0.0,
                0.0,
                0.0,
                1.0
            ],
            "scale": [
                1.0,
                1.0,
                1.0
            ],
            "children": [
                9
            ]
        },
        {
            "name": "R_RingFinger_03",
            "translation": [
                -0.000948755710851401,
                0.0261856913566589,
                -0.000535271305125207
            ],
            "rotation": [
                0.0,
                0.0,
                0.0,
                1.0
            ],
            "scale": [
                1.0,
                1.0,
                1.0
            ],
            "children": [
                10
            ]
        },
        {
            "name": "R_RingFinger_04",
            "translation": [
                -0.000849685107823461,
                0.0252364221960306,
                -0.00190102367196232
            ],
            "rotation": [
                0.0,
                0.0,
                0.0,
                1.0
            ],
            "scale": [
                1.0,
                1.0,
                1.0
            ]
        },
        {
            "name": "R_LittleFinger_01",
            "translation": [
                -0.0382439307868481,
                0.105842672288418,
                0.00970247574150562
            ],
            "rotation": [
                0.0,
                0.0,
                0.0,
                1.0
            ],
            "scale": [
                1.0,
                1.0,
                1.0
            ],
            "children": [
                12
            ]
        },
        {
            "name": "R_LittleFinger_02",
            "translation": [
                0.000343595136655495,
                0.0320145487785339,
                -0.00131337658967823
            ],
            "rotation": [
                0.0,
                0.0,
                0.0,
                1.0
            ],
            "scale": [
                1.0,
                1.0,
                1.0
            ],
            "children": [
                13
            ]
        },
        {
            "name": "R_LittleFinger_03",
            "translation": [
                0.00124697864521295,
                0.0186407547444105,
                -0.00130876700859517
            ],
            "rotation": [
                0.0,
                0.0,
                0.0,
                1.0
            ],
            "scale": [
                1.0,
                1.0,
                1.0
            ],
            "children": [
                14
            ]
        },
        {
            "name": "R_LittleFinger_04",
            "translation": [
                0.000596206111367792,
                0.0209578182548285,
                0.000111962486698758
            ],
            "rotation": [
                0.0,
                0.0,
                0.0,
                1.0
            ],
            "scale": [
                1.0,
                1.0,
                1.0
            ]
        },
        {
            "name": "R_IndexFinger_01",
            "translation": [
                0.0203564893454313,
                0.119312964379787,
                0.0064293616451323
            ],
            "rotation": [
                0.0,
                0.0,
                0.0,
                1.0
            ],
            "scale": [
                1.0,
                1.0,
                1.0
            ],
            "children": [
                16
            ]
        },
        {
            "name": "R_IndexFinger_02",
            "translation": [
                -0.0053140539675951,
                0.0432783290743828,
                -0.000374888943042606
            ],
            "rotation": [
                0.0,
                0.0,
                0.0,
                1.0
            ],
            "scale": [
                1.0,
                1.0,
                1.0
            ],
            "children": [
                17
            ]
        },
        {
            "name": "R_IndexFinger_03",
            "translation": [
                -0.00425829505547881,
                0.026794072240591,
                0.000135946887894534
            ],
            "rotation": [
                0.0,
                0.0,
                0.0,
                1.0
            ],
            "scale": [
                1.0,
                1.0,
                1.0
            ],
            "children": [
                18
            ]
        },
        {
            "name": "R_IndexFinger_04",
            "translation": [
                -0.00236069993115962,
                0.0233319401741028,
                -0.000999568495899439
            ],
            "rotation": [
                0.0,
                0.0,
                0.0,
                1.0
            ],
            "scale": [
                1.0,
                1.0,
                1.0
            ]
        },
        {
            "name": "R_Thumb_01",
            "translation": [
                0.0362654328346252,
                0.0532152503728867,
                0.0177831519395113
            ],
            "rotation": [
                -0.0638914108276367,
                -0.579690456390381,
                -0.29398649930954,
                0.757264018058777
            ],
            "scale": [
                1.0,
                1.0,
                1.0
            ],
            "children": [
                20
            ]
        },
        {
            "name": "R_Thumb_02",
            "translation": [
                0.00130562216509134,
                0.035329207777977,
                0.00284245726652443
            ],
            "rotation": [
                0.00319127831608057,
                -0.0917163044214249,
                -0.0346273146569729,
                0.995177805423737
            ],
            "scale": [
                1.0,
                1.0,
                1.0
            ],
            "children": [
                21
            ]
        },
        {
            "name": "R_Thumb_03",
            "translation": [
                0.00053471140563488,
                0.0276311580091715,
                0.00416136858984828
            ],
            "rotation": [
                -6.62030446380182e-18,
                2.74522666829792e-17,
                0.0512681901454926,
                0.998684942722321
            ],
            "scale": [
                1.0,
                1.0,
                1.0
            ],
            "children": [
                22
            ]
        },
        {
            "name": "R_Thumb_04",
            "translation": [
                0.000776392815168947,
                0.0374346598982811,
                0.00287907058373094
            ],
            "rotation": [
                -2.16206990444334e-05,
                0.00277004297822714,
                0.00780491810292006,
                0.999965727329254
            ],
            "scale": [
                1.0,
                1.0,
                1.0
            ]
        },
        {
            "name": "R_Hand",
            "translation": [
                0.0,
                0.0,
                0.0
            ],
            "rotation": [
                0.0,
                0.0,
                0.0,
                1.0
            ],
            "scale": [
                1.0,
                1.0,
                1.0
            ],
            "mesh": 0,
            "skin": 0
        }
    ]
}